<?xml version="1.0" encoding="UTF-8" standalone="no"?>
<svg
   xmlns:dc="http://purl.org/dc/elements/1.1/"
   xmlns:cc="http://creativecommons.org/ns#"
   xmlns:rdf="http://www.w3.org/1999/02/22-rdf-syntax-ns#"
   xmlns:svg="http://www.w3.org/2000/svg"
   xmlns="http://www.w3.org/2000/svg"
   xmlns:sodipodi="http://sodipodi.sourceforge.net/DTD/sodipodi-0.dtd"
   xmlns:inkscape="http://www.inkscape.org/namespaces/inkscape"
   sodipodi:docname="cloudy.svg"
   inkscape:version="1.0 (4035a4fb49, 2020-05-01)"
   inkscape:export-ydpi="96"
   inkscape:export-xdpi="96"
   inkscape:export-filename="/home/olearry/dev/python/Weather/weather_icons/02cloudy.png"
   id="svg1391"
   version="1.1"
   viewBox="0 0 14.048831 10.134765"
   height="10.134765mm"
   width="14.04883mm">
  <defs
     id="defs1385" />
  <sodipodi:namedview
     inkscape:window-maximized="1"
     inkscape:window-y="0"
     inkscape:window-x="2440"
     inkscape:window-height="1044"
     inkscape:window-width="834"
     showgrid="false"
     inkscape:document-rotation="0"
     inkscape:current-layer="layer1"
     inkscape:document-units="mm"
     inkscape:cy="40.498802"
     inkscape:cx="57.341678"
     inkscape:zoom="3.4214309"
     inkscape:pageshadow="2"
     inkscape:pageopacity="0.0"
     borderopacity="1.0"
     bordercolor="#666666"
     pagecolor="#ffffff"
     id="base" />
  <metadata
     id="metadata1388">
    <rdf:RDF>
      <cc:Work
         rdf:about="">
        <dc:format>image/svg+xml</dc:format>
        <dc:type
           rdf:resource="http://purl.org/dc/dcmitype/StillImage" />
        <dc:title></dc:title>
      </cc:Work>
    </rdf:RDF>
  </metadata>
  <g
     transform="translate(-110.62598,-93.640625)"
     id="layer1"
     inkscape:groupmode="layer"
     inkscape:label="Layer 1">
    <g
       transform="translate(-0.12594638)"
       style="opacity:1;fill:#ff7f2a;stroke-width:4;stroke-miterlimit:4;stroke-dasharray:none"
       id="g1495">
      <path
         id="path1497"
         d="m 124.29857,96.948501 h -1.19062 c -0.0529,-0.3175 -0.18521,-0.608542 -0.34396,-0.846667 l 0.58208,-0.582083 c 0.1323,-0.132292 0.1323,-0.343958 0,-0.47625 -0.13229,-0.132292 -0.34395,-0.132292 -0.47625,0 l -0.58208,0.582083 c -0.23812,-0.185208 -0.52916,-0.291041 -0.84666,-0.343958 v -1.190625 c 0,-0.185208 -0.15876,-0.3175 -0.31751,-0.3175 -0.15875,0 -0.31749,0.15875 -0.31749,0.3175 v 1.190625 c -0.31751,0.05292 -0.60855,0.185208 -0.84667,0.343958 l -0.58208,-0.582083 c -0.1323,-0.132292 -0.34396,-0.132292 -0.47626,0 -0.13229,0.132292 -0.13229,0.343958 0,0.47625 l 0.58209,0.582083 c -0.13229,0.185209 -0.23813,0.396875 -0.3175,0.635 -0.23813,0.05292 -0.47625,0.132292 -0.68792,0.238125 -0.55562,-0.820208 -1.48167,-1.296458 -2.48708,-1.296458 -1.66688,0 -3.04271,1.349375 -3.04271,3.042708 0,0.15875 0.0265,0.343959 0.0529,0.502709 -1.16417,0.05292 -2.11667,1.031862 -2.11667,2.196042 0,1.21709 0.97896,2.2225 2.2225,2.2225 h 8.09625 c 1.21708,0 2.2225,-0.97896 2.2225,-2.2225 0,-0.92605 -0.58208,-1.746246 -1.42875,-2.063751 v -0.211666 c 0.13229,-0.05292 0.23812,-0.132292 0.34396,-0.185209 l 0.58208,0.58208 c 0.0529,0.0529 0.15875,0.10584 0.23813,0.10584 0.0794,0 0.15875,-0.0265 0.23812,-0.10584 0.13229,-0.132288 0.13229,-0.343955 0,-0.476246 l -0.58208,-0.582084 c 0.18521,-0.238125 0.29104,-0.529166 0.34396,-0.846666 h 1.19062 c 0.18521,0 0.3175,-0.15875 0.3175,-0.3175 -0.0265,-0.211667 -0.18521,-0.370417 -0.37042,-0.370417 z m -1.58749,4.471459 c 0,0.84667 -0.68792,1.56104 -1.56105,1.56104 h -8.09625 c -0.84666,0 -1.56104,-0.68791 -1.56104,-1.56104 0,-0.84668 0.68792,-1.561046 1.56104,-1.561046 h 0.7673 l -0.1323,-0.42333 c -0.0794,-0.238125 -0.10583,-0.47625 -0.10583,-0.714375 0,-1.296458 1.05833,-2.38125 2.38125,-2.38125 0.87313,0 1.69333,0.47625 2.09021,1.27 l 0.18521,0.343959 0.3175,-0.238125 c 0.15875,-0.132292 0.34395,-0.211667 0.52916,-0.264584 0.15875,-0.05292 0.3175,-0.07937 0.50271,-0.07937 h 0.15875 c 0.71438,0.07937 1.32292,0.582084 1.48167,1.27 0.0265,0.132292 0.0529,0.291042 0.0529,0.423334 0,0.07937 0,0.15875 -0.0265,0.238125 0,0.05292 -0.0265,0.132291 -0.0265,0.185208 l -0.0794,0.343958 0.34396,0.0794 c 0.71438,0.132286 1.21709,0.793746 1.21709,1.508126 z m -0.84667,-2.989792 c -0.26458,-0.899584 -1.03188,-1.5875 -2.01084,-1.719792 0.21167,-0.47625 0.68792,-0.79375 1.24355,-0.79375 0.76729,0 1.37583,0.608542 1.37583,1.375833 0.0265,0.47625 -0.23813,0.899584 -0.60854,1.137709 z"
         style="color:#000000;font-style:normal;font-variant:normal;font-weight:normal;font-stretch:normal;font-size:medium;line-height:normal;font-family:sans-serif;font-variant-ligatures:normal;font-variant-position:normal;font-variant-caps:normal;font-variant-numeric:normal;font-variant-alternates:normal;font-variant-east-asian:normal;font-feature-settings:normal;font-variation-settings:normal;text-indent:0;text-align:start;text-decoration:none;text-decoration-line:none;text-decoration-style:solid;text-decoration-color:#000000;letter-spacing:normal;word-spacing:normal;text-transform:none;writing-mode:lr-tb;direction:ltr;text-orientation:mixed;dominant-baseline:auto;baseline-shift:baseline;text-anchor:start;white-space:normal;shape-padding:0;shape-margin:0;inline-size:0;clip-rule:nonzero;display:inline;overflow:visible;visibility:visible;isolation:auto;mix-blend-mode:normal;color-interpolation:sRGB;color-interpolation-filters:linearRGB;solid-color:#000000;solid-opacity:1;vector-effect:none;fill:#ff7f2a;fill-opacity:1;fill-rule:nonzero;stroke:none;stroke-width:4;stroke-linecap:butt;stroke-linejoin:miter;stroke-miterlimit:4;stroke-dasharray:none;stroke-dashoffset:0;stroke-opacity:1;color-rendering:auto;image-rendering:auto;shape-rendering:auto;text-rendering:auto;enable-background:accumulate;stop-color:#000000;stop-opacity:1" />
      <path
         id="path1499"
         d="m 121.12305,93.640625 c -0.12348,0 -0.23023,0.05835 -0.31055,0.138672 -0.0803,0.08032 -0.13867,0.18903 -0.13867,0.3125 v 1.103515 c -0.25085,0.05788 -0.47964,0.156076 -0.67969,0.277344 l -0.52344,-0.523437 c -0.18218,-0.182176 -0.48187,-0.182176 -0.66406,0 -0.18218,0.182182 -0.18218,0.48188 0,0.664062 l 0.51563,0.515625 c -0.0982,0.15301 -0.18187,0.31789 -0.24805,0.5 -0.19537,0.0472 -0.38728,0.114612 -0.56836,0.197266 -0.58632,-0.799806 -1.50699,-1.279297 -2.51563,-1.279297 -1.73827,0 -3.17382,1.408837 -3.17382,3.173828 0,0.142518 0.0233,0.292059 0.0449,0.431641 -1.16351,0.131183 -2.10938,1.083086 -2.10938,2.267576 0,1.28803 1.04063,2.35547 2.35547,2.35547 h 8.0957 c 1.28802,0 2.35547,-1.04062 2.35547,-2.35547 0,-0.94303 -0.58843,-1.758012 -1.42968,-2.121092 v -0.07617 c 0.0712,-0.03627 0.13569,-0.06787 0.18945,-0.09961 l 0.51172,0.511719 c 0.0841,0.08409 0.19188,0.144531 0.33008,0.144531 0.10883,0 0.23189,-0.04444 0.33203,-0.144531 0.18218,-0.18218 0.18218,-0.481881 0,-0.664063 l -0.52344,-0.523437 c 0.13442,-0.204479 0.22503,-0.432663 0.27734,-0.677735 h 1.10547 c 0.26081,0 0.44922,-0.218927 0.44922,-0.451172 v -0.0078 -0.0078 c -0.0336,-0.26818 -0.24115,-0.486328 -0.50195,-0.486328 h -1.10547 c -0.058,-0.251398 -0.15376,-0.481289 -0.27539,-0.68164 l 0.52148,-0.521485 c 0.18219,-0.18218 0.18219,-0.481882 0,-0.664062 -0.18218,-0.182182 -0.48187,-0.182176 -0.66406,0 l -0.52344,0.523437 c -0.20437,-0.13423 -0.43284,-0.22508 -0.67773,-0.277344 v -1.103515 c 0,-0.260808 -0.21893,-0.451172 -0.45117,-0.451172 z m 0,0.265625 c 0.0852,0 0.18554,0.07594 0.18554,0.185547 v 1.302734 l 0.11133,0.01758 c 0.30222,0.05037 0.57095,0.150229 0.78711,0.31836 l 0.0918,0.07031 0.66406,-0.664062 c 0.0824,-0.08241 0.20666,-0.0824 0.28906,0 0.0824,0.0824 0.0824,0.206659 0,0.289062 l -0.6582,0.660157 0.0606,0.08984 c 0.14997,0.224958 0.27309,0.499768 0.32226,0.794922 l 0.0195,0.109375 h 1.30274 c 0.1057,0 0.20561,0.100363 0.23047,0.246094 -0.006,0.08266 -0.0727,0.177734 -0.17774,0.177734 h -1.30273 l -0.0176,0.111328 c -0.0504,0.302219 -0.15023,0.570941 -0.31836,0.78711 l -0.0723,0.0918 0.66407,0.664062 c 0.0824,0.0824 0.0824,0.206666 0,0.289063 -0.0586,0.05859 -0.0946,0.06836 -0.14453,0.06836 -0.0206,0 -0.12282,-0.04665 -0.14454,-0.06836 l -0.64843,-0.648438 -0.0859,0.04297 c -0.12162,0.06081 -0.22146,0.134673 -0.33398,0.179687 l -0.082,0.0332 v 0.392578 l 0.0859,0.0332 c 0.7952,0.298204 1.3418,1.068837 1.3418,1.939447 0,1.17224 -0.9437,2.08985 -2.08985,2.08985 h -8.0957 c -1.17223,0 -2.09179,-0.9437 -2.0918,-2.08985 0,-1.09202 0.89869,-2.014739 1.99219,-2.064447 l 0.14844,-0.0059 -0.0254,-0.146484 c -0.026,-0.156457 -0.0508,-0.338394 -0.0508,-0.482422 0,-1.621675 1.31467,-2.910156 2.91015,-2.910156 0.96364,0 1.84823,0.454895 2.37891,1.238281 l 0.0644,0.0957 0.10352,-0.05078 c 0.19984,-0.09992 0.42919,-0.177621 0.6582,-0.228516 l 0.0723,-0.01563 0.0234,-0.07031 c 0.0756,-0.226966 0.17484,-0.426036 0.29882,-0.599609 l 0.0664,-0.0918 -0.66211,-0.66211 c -0.0824,-0.0824 -0.0824,-0.206661 0,-0.289062 0.0824,-0.08241 0.20665,-0.08241 0.28906,0 l 0.66016,0.658203 0.0898,-0.05859 c 0.22495,-0.149968 0.49975,-0.275021 0.79492,-0.324219 l 0.10938,-0.01758 v -1.302734 c 0,-0.03528 0.0218,-0.08626 0.0606,-0.125 0.0387,-0.03874 0.0897,-0.06055 0.125,-0.06055 z m -0.0254,1.878906 c -0.60603,0 -1.13252,0.347486 -1.36524,0.871094 l -0.0723,0.162109 0.17578,0.02344 c 0.92773,0.12537 1.65215,0.774324 1.90234,1.625 l 0.0488,0.169922 0.14844,-0.0957 c 0.40504,-0.260393 0.69537,-0.724597 0.66797,-1.251954 -0.003,-0.835031 -0.6702,-1.503906 -1.50586,-1.503906 z m 0,0.263672 c 0.69734,0 1.24218,0.546797 1.24218,1.244141 v 0.0039 l 0.002,0.0039 c 0.0206,0.36973 -0.21194,0.665901 -0.48047,0.888672 -0.30387,-0.754294 -0.93771,-1.308836 -1.75977,-1.505859 0.21461,-0.350385 0.54783,-0.634766 0.9961,-0.634766 z m -5.13282,0.158203 c -1.39524,0 -2.51367,1.145219 -2.51367,2.513672 0,0.247914 0.0263,0.500986 0.11133,0.755859 l 0.0781,0.25 h -0.58593 c -0.94528,0 -1.69336,0.775018 -1.69336,1.693358 0,0.94529 0.77504,1.69336 1.69336,1.69336 h 8.0957 c 0.94529,0 1.69336,-0.77503 1.69336,-1.69336 V 101.25 l -0.0547,0.0137 c -0.0729,-0.70777 -0.54708,-1.34779 -1.26953,-1.48242 h -0.002 l -0.20899,-0.04883 0.0527,-0.228516 v -0.01563 c 0,-0.0044 0.005,-0.03333 0.0117,-0.06641 0.007,-0.03307 0.0156,-0.0706 0.0156,-0.119141 l -0.008,0.04297 c 0.0349,-0.104505 0.0332,-0.20188 0.0332,-0.28125 0,-0.149892 -0.0275,-0.313533 -0.0547,-0.449219 v -0.002 l -0.002,-0.002 c -0.17223,-0.746333 -0.82858,-1.285864 -1.5957,-1.371094 h -0.006 -0.16602 c -0.19562,0 -0.36955,0.02812 -0.53906,0.08398 -0.19429,0.05551 -0.39601,0.140053 -0.57226,0.285156 l -0.19532,0.146484 -0.11132,-0.205078 -0.002,-0.0039 c -0.42075,-0.837671 -1.28527,-1.339844 -2.20508,-1.339844 z m 0,0.265625 c 0.82503,0 1.59697,0.449793 1.97071,1.197266 l 0.002,0.002 0.25781,0.480469 0.44336,-0.332032 0.004,-0.002 c 0.13987,-0.116558 0.30646,-0.190517 0.48047,-0.240234 h 0.002 l 0.004,-0.002 c 0.14619,-0.04873 0.28832,-0.07227 0.46093,-0.07227 h 0.14258 c 0.66165,0.07351 1.22192,0.53847 1.36719,1.167969 0.0255,0.12812 0.0508,0.278998 0.0508,0.392578 0,0.07937 -10e-4,0.143021 -0.0195,0.197266 l -0.008,0.01953 v 0.02148 c 0,0.0044 -0.003,0.03333 -0.01,0.06641 -0.007,0.03307 -0.0156,0.0706 -0.0156,0.11914 l 0.002,-0.0293 -0.10742,0.472657 0.47461,0.109375 h 0.004 c 0.64767,0.11993 1.10743,0.72658 1.10742,1.3789 0,0.77501 -0.62676,1.42969 -1.42773,1.42969 h -8.0957 c -0.775,0 -1.42969,-0.62872 -1.42969,-1.42969 0,-0.77502 0.62873,-1.429682 1.42969,-1.429682 h 0.94726 l -0.1875,-0.595703 c -0.0738,-0.221376 -0.0996,-0.445492 -0.0996,-0.673828 0,-1.224463 0.9994,-2.248047 2.25,-2.248047 z"
         style="color:#000000;font-style:normal;font-variant:normal;font-weight:normal;font-stretch:normal;font-size:medium;line-height:normal;font-family:sans-serif;font-variant-ligatures:normal;font-variant-position:normal;font-variant-caps:normal;font-variant-numeric:normal;font-variant-alternates:normal;font-variant-east-asian:normal;font-feature-settings:normal;font-variation-settings:normal;text-indent:0;text-align:start;text-decoration:none;text-decoration-line:none;text-decoration-style:solid;text-decoration-color:#000000;letter-spacing:normal;word-spacing:normal;text-transform:none;writing-mode:lr-tb;direction:ltr;text-orientation:mixed;dominant-baseline:auto;baseline-shift:baseline;text-anchor:start;white-space:normal;shape-padding:0;shape-margin:0;inline-size:0;clip-rule:nonzero;display:inline;overflow:visible;visibility:visible;isolation:auto;mix-blend-mode:normal;color-interpolation:sRGB;color-interpolation-filters:linearRGB;solid-color:#000000;solid-opacity:1;vector-effect:none;fill:#ff7f2a;fill-opacity:1;fill-rule:nonzero;stroke:none;stroke-width:4;stroke-linecap:butt;stroke-linejoin:miter;stroke-miterlimit:4;stroke-dasharray:none;stroke-dashoffset:0;stroke-opacity:1;color-rendering:auto;image-rendering:auto;shape-rendering:auto;text-rendering:auto;enable-background:accumulate;stop-color:#000000;stop-opacity:1" />
    </g>
    <path
       id="path509"
       d="M 124.17262,96.948506 H 122.982 c -0.0529,-0.3175 -0.18521,-0.60854 -0.34396,-0.84667 l 0.58208,-0.58208 c 0.1323,-0.13229 0.1323,-0.34396 0,-0.47625 -0.13229,-0.13229 -0.34395,-0.13229 -0.47625,0 l -0.58208,0.58208 c -0.23812,-0.18521 -0.52916,-0.29104 -0.84666,-0.34396 v -1.19062 c 0,-0.18521 -0.15876,-0.3175 -0.31751,-0.3175 -0.15875,0 -0.31749,0.15875 -0.31749,0.3175 v 1.19062 c -0.31751,0.0529 -0.60855,0.18521 -0.84667,0.34396 l -0.58208,-0.58208 c -0.1323,-0.13229 -0.34396,-0.13229 -0.47626,0 -0.13229,0.13229 -0.13229,0.34396 0,0.47625 l 0.58209,0.58208 c -0.13229,0.18521 -0.23813,0.39688 -0.3175,0.635 -0.23813,0.0529 -0.47625,0.13229 -0.68792,0.23813 -0.55562,-0.82021 -1.48167,-1.29646 -2.48708,-1.29646 -1.66688,0 -3.04271,1.34937 -3.04271,3.04271 0,0.15875 0.0265,0.34395 0.0529,0.5027 -1.16417,0.0529 -2.11667,1.031864 -2.11667,2.196034 0,1.21709 0.97896,2.2225 2.2225,2.2225 h 8.09625 c 1.21708,0 2.2225,-0.97896 2.2225,-2.2225 0,-0.92604 -0.58208,-1.746234 -1.42875,-2.063734 0,-0.0794 0,-0.1323 0,-0.21167 0.13229,-0.0529 0.23812,-0.13229 0.34396,-0.18521 l 0.58208,0.58208 c 0.0529,0.0529 0.15875,0.10584 0.23813,0.10584 0.0794,0 0.15875,-0.0265 0.23812,-0.10584 0.13229,-0.13229 0.13229,-0.34395 0,-0.47625 l -0.58208,-0.58208 c 0.18521,-0.23812 0.29104,-0.52917 0.34396,-0.84667 h 1.19062 c 0.18521,0 0.3175,-0.15875 0.3175,-0.3175 -0.0265,-0.21166 -0.18521,-0.37041 -0.37042,-0.37041 z m -1.58749,4.471444 c 0,0.84667 -0.68792,1.56104 -1.56105,1.56104 h -8.09625 c -0.84666,0 -1.56104,-0.68791 -1.56104,-1.56104 0,-0.84667 0.68792,-1.561034 1.56104,-1.561034 h 0.7673 l -0.1323,-0.42333 c -0.0794,-0.23812 -0.10583,-0.47625 -0.10583,-0.71437 0,-1.29646 1.05833,-2.38125 2.38125,-2.38125 0.87313,0 1.69333,0.47625 2.09021,1.27 l 0.18521,0.34395 0.3175,-0.23812 c 0.15875,-0.13229 0.34395,-0.21167 0.52916,-0.26458 0.15875,-0.0529 0.3175,-0.0794 0.50271,-0.0794 0.0529,0 0.10584,0 0.15875,0 0.71438,0.0794 1.32292,0.58208 1.48167,1.27 0.0265,0.13229 0.0529,0.29104 0.0529,0.42333 0,0.0794 0,0.15875 -0.0265,0.23812 0,0.0529 -0.0265,0.1323 -0.0265,0.18521 l -0.0794,0.34396 0.34396,0.0794 c 0.71438,0.132294 1.21709,0.793744 1.21709,1.508114 z m -0.84667,-2.989784 c -0.26458,-0.89958 -1.03188,-1.5875 -2.01084,-1.71979 0.21167,-0.47625 0.68792,-0.79375 1.24355,-0.79375 0.76729,0 1.37583,0.60854 1.37583,1.37584 0.0265,0.47625 -0.23813,0.89958 -0.60854,1.1377 z"
       fill="#444444"
       style="stroke-width:0.264583" />
  </g>
</svg>
