<?xml version="1.0" encoding="UTF-8" standalone="no"?>
<svg
   xmlns:dc="http://purl.org/dc/elements/1.1/"
   xmlns:cc="http://creativecommons.org/ns#"
   xmlns:rdf="http://www.w3.org/1999/02/22-rdf-syntax-ns#"
   xmlns:svg="http://www.w3.org/2000/svg"
   xmlns="http://www.w3.org/2000/svg"
   xmlns:sodipodi="http://sodipodi.sourceforge.net/DTD/sodipodi-0.dtd"
   xmlns:inkscape="http://www.inkscape.org/namespaces/inkscape"
   width="12.220933mm"
   height="12.224607mm"
   viewBox="0 0 12.220934 12.224607"
   version="1.1"
   id="svg1391"
   inkscape:export-filename="/home/olearry/dev/python/Weather/weather_icons/01_sunny.png"
   inkscape:export-xdpi="96"
   inkscape:export-ydpi="96"
   inkscape:version="1.0 (4035a4fb49, 2020-05-01)"
   sodipodi:docname="sun.svg">
  <defs
     id="defs1385" />
  <sodipodi:namedview
     id="base"
     pagecolor="#ffffff"
     bordercolor="#666666"
     borderopacity="1.0"
     inkscape:pageopacity="0.0"
     inkscape:pageshadow="2"
     inkscape:zoom="3.4214309"
     inkscape:cx="27.039023"
     inkscape:cy="45.156776"
     inkscape:document-units="mm"
     inkscape:current-layer="layer1"
     inkscape:document-rotation="0"
     showgrid="false"
     inkscape:window-width="554"
     inkscape:window-height="1044"
     inkscape:window-x="1600"
     inkscape:window-y="0"
     inkscape:window-maximized="1" />
  <metadata
     id="metadata1388">
    <rdf:RDF>
      <cc:Work
         rdf:about="">
        <dc:format>image/svg+xml</dc:format>
        <dc:type
           rdf:resource="http://purl.org/dc/dcmitype/StillImage" />
        <dc:title />
      </cc:Work>
    </rdf:RDF>
  </metadata>
  <g
     inkscape:label="Layer 1"
     inkscape:groupmode="layer"
     id="layer1"
     transform="translate(-119.07227,-92.408203)">
    <g
       id="g2817"
       style="opacity:1;fill:#ff7f2a">
      <path
         style="color:#000000;font-style:normal;font-variant:normal;font-weight:normal;font-stretch:normal;font-size:medium;line-height:normal;font-family:sans-serif;font-variant-ligatures:normal;font-variant-position:normal;font-variant-caps:normal;font-variant-numeric:normal;font-variant-alternates:normal;font-variant-east-asian:normal;font-feature-settings:normal;font-variation-settings:normal;text-indent:0;text-align:start;text-decoration:none;text-decoration-line:none;text-decoration-style:solid;text-decoration-color:#000000;letter-spacing:normal;word-spacing:normal;text-transform:none;writing-mode:lr-tb;direction:ltr;text-orientation:mixed;dominant-baseline:auto;baseline-shift:baseline;text-anchor:start;white-space:normal;shape-padding:0;shape-margin:0;inline-size:0;clip-rule:nonzero;display:inline;overflow:visible;visibility:visible;isolation:auto;mix-blend-mode:normal;color-interpolation:sRGB;color-interpolation-filters:linearRGB;solid-color:#000000;solid-opacity:1;vector-effect:none;fill:#ff7f2a;fill-opacity:1;fill-rule:nonzero;stroke:none;stroke-width:0.264583;stroke-linecap:butt;stroke-linejoin:miter;stroke-miterlimit:4;stroke-dasharray:none;stroke-dashoffset:0;stroke-opacity:1;color-rendering:auto;image-rendering:auto;shape-rendering:auto;text-rendering:auto;enable-background:accumulate;stop-color:#000000;stop-opacity:1"
         d="m 130.8458,98.203025 h -2.32834 c -0.0794,-0.687916 -0.34396,-1.296458 -0.74083,-1.799166 l 1.19062,-1.190625 c 0.1323,-0.132292 0.1323,-0.343959 0,-0.47625 -0.13229,-0.132292 -0.34395,-0.132292 -0.47625,0 l -1.19062,1.190625 c -0.50271,-0.423334 -1.11125,-0.687917 -1.79917,-0.740834 v -2.328333 c 0,-0.185208 -0.15875,-0.3175 -0.3175,-0.3175 -0.15875,0 -0.3175,0.15875 -0.3175,0.3175 v 2.328333 c -0.68791,0.07937 -1.29646,0.343959 -1.79916,0.740834 l -1.19063,-1.190625 c -0.13229,-0.132292 -0.34396,-0.132292 -0.47625,0 -0.13229,0.132291 -0.13229,0.343958 0,0.47625 l 1.19063,1.190625 c -0.42334,0.502708 -0.68792,1.11125 -0.74084,1.799166 h -2.32833 c -0.18521,0 -0.3175,0.15875 -0.3175,0.3175 0,0.185209 0.15875,0.3175 0.3175,0.3175 h 2.32833 c 0.0794,0.687917 0.34396,1.296455 0.74084,1.799165 l -1.19063,1.19062 c -0.13229,0.1323 -0.13229,0.34396 0,0.47626 0.0529,0.0529 0.15875,0.10583 0.23813,0.10583 0.0794,0 0.15875,-0.0265 0.23812,-0.10583 l 1.19063,-1.19063 c 0.5027,0.42333 1.11125,0.68792 1.79916,0.74083 v 2.32834 c 0,0.18521 0.15875,0.3175 0.3175,0.3175 0.15875,0 0.3175,-0.15875 0.3175,-0.3175 v -2.32834 c 0.68792,-0.0794 1.29646,-0.34395 1.79917,-0.74083 l 1.19062,1.19063 c 0.0529,0.0529 0.15875,0.10583 0.23813,0.10583 0.0794,0 0.15875,-0.0265 0.23812,-0.10583 0.1323,-0.1323 0.1323,-0.34396 0,-0.47626 l -1.19062,-1.19062 c 0.42333,-0.50271 0.68792,-1.111248 0.74083,-1.799165 h 2.32834 c 0.1852,0 0.3175,-0.15875 0.3175,-0.3175 0.0264,-0.185208 -0.1323,-0.3175 -0.3175,-0.3175 z m -5.66209,3.016245 c -1.48166,0 -2.69875,-1.21708 -2.69875,-2.698745 0,-1.481666 1.21709,-2.69875 2.69875,-2.69875 1.48167,0 2.69875,1.217084 2.69875,2.69875 0,1.481665 -1.19062,2.698745 -2.69875,2.698745 z"
         id="path2819" />
      <path
         style="color:#000000;font-style:normal;font-variant:normal;font-weight:normal;font-stretch:normal;font-size:medium;line-height:normal;font-family:sans-serif;font-variant-ligatures:normal;font-variant-position:normal;font-variant-caps:normal;font-variant-numeric:normal;font-variant-alternates:normal;font-variant-east-asian:normal;font-feature-settings:normal;font-variation-settings:normal;text-indent:0;text-align:start;text-decoration:none;text-decoration-line:none;text-decoration-style:solid;text-decoration-color:#000000;letter-spacing:normal;word-spacing:normal;text-transform:none;writing-mode:lr-tb;direction:ltr;text-orientation:mixed;dominant-baseline:auto;baseline-shift:baseline;text-anchor:start;white-space:normal;shape-padding:0;shape-margin:0;inline-size:0;clip-rule:nonzero;display:inline;overflow:visible;visibility:visible;isolation:auto;mix-blend-mode:normal;color-interpolation:sRGB;color-interpolation-filters:linearRGB;solid-color:#000000;solid-opacity:1;vector-effect:none;fill:#ff7f2a;fill-opacity:1;fill-rule:nonzero;stroke:none;stroke-width:0.264583;stroke-linecap:butt;stroke-linejoin:miter;stroke-miterlimit:4;stroke-dasharray:none;stroke-dashoffset:0;stroke-opacity:1;color-rendering:auto;image-rendering:auto;shape-rendering:auto;text-rendering:auto;enable-background:accumulate;stop-color:#000000;stop-opacity:1"
         d="m 125.18359,92.408203 c -0.12347,0 -0.23218,0.05835 -0.3125,0.138672 -0.0803,0.08032 -0.13672,0.189028 -0.13671,0.3125 v 2.244141 c -0.61391,0.09284 -1.16515,0.327448 -1.63282,0.671875 l -1.13086,-1.132813 c -0.18218,-0.182184 -0.48188,-0.182184 -0.66406,0 -0.18218,0.182182 -0.18218,0.48188 0,0.664063 l 1.13281,1.132812 c -0.36381,0.466817 -0.59695,1.017761 -0.66992,1.630859 h -2.24805 c -0.2608,0 -0.44921,0.218928 -0.44921,0.451172 0,0.260804 0.21697,0.449219 0.44921,0.449219 h 2.2461 c 0.0929,0.614045 0.32729,1.163127 0.67187,1.630857 l -1.13281,1.13282 c -0.18217,0.18218 -0.18217,0.48187 0,0.66406 0.0841,0.0841 0.19384,0.14453 0.33203,0.14453 0.10884,0 0.2319,-0.0444 0.33203,-0.14453 l 1.13282,-1.13477 c 0.46736,0.36438 1.01683,0.59914 1.63086,0.67188 v 2.24609 c 0,0.26081 0.21697,0.45117 0.44921,0.45117 0.12348,0 0.23218,-0.0584 0.3125,-0.13867 0.0803,-0.0803 0.13672,-0.18903 0.13672,-0.3125 v -2.24414 c 0.61391,-0.0929 1.16514,-0.32745 1.63281,-0.67188 l 1.13086,1.13282 c 0.0841,0.0841 0.19385,0.14453 0.33204,0.14453 0.10883,0 0.23189,-0.0444 0.33203,-0.14453 0.18218,-0.18219 0.18218,-0.48188 0,-0.66406 l -1.13282,-1.13477 c 0.36318,-0.46651 0.59704,-1.016434 0.66993,-1.628907 h 2.24804 c 0.25853,0 0.44207,-0.215351 0.44532,-0.445312 0.0131,-0.127891 -0.0336,-0.251171 -0.11719,-0.330079 -0.0869,-0.0821 -0.20403,-0.125 -0.32813,-0.125 h -2.24609 c -0.0929,-0.613785 -0.32558,-1.163258 -0.66992,-1.630859 l 1.13086,-1.132812 c 0.18219,-0.182181 0.18219,-0.481883 0,-0.664063 -0.18218,-0.182182 -0.48188,-0.182176 -0.66407,0 l -1.13281,1.134766 c -0.46737,-0.364376 -1.01683,-0.599131 -1.63086,-0.671875 v -2.246094 c 0,-0.260803 -0.21697,-0.451172 -0.44922,-0.451172 z m 0,0.265625 c 0.0853,0 0.18555,0.07593 0.18555,0.185547 v 2.449219 l 0.12109,0.0098 c 0.66025,0.05079 1.24137,0.303993 1.72461,0.710938 l 0.0937,0.07813 1.27539,-1.277344 c 0.0824,-0.08241 0.20667,-0.0824 0.28907,0 0.0824,0.0824 0.0824,0.206659 0,0.289063 l -1.27344,1.273437 0.0723,0.09375 c 0.38241,0.484397 0.63826,1.068929 0.71484,1.732422 l 0.0137,0.117188 h 2.44531 c 0.0611,0 0.11436,0.02239 0.14649,0.05273 0.0321,0.03034 0.0484,0.0617 0.041,0.113281 l -0.002,0.0098 v 0.0098 c 0,0.08525 -0.076,0.183594 -0.18555,0.183594 h -2.45117 l -0.01,0.123047 c -0.0508,0.660242 -0.30205,1.24136 -0.70899,1.7246 l -0.0781,0.0918 1.27539,1.27735 c 0.0824,0.0824 0.0824,0.20664 0,0.28907 -0.0586,0.0586 -0.0946,0.0664 -0.14453,0.0664 -0.0206,0 -0.12283,-0.0447 -0.14454,-0.0664 l -1.27343,-1.27344 -0.0918,0.0723 c -0.4844,0.38242 -1.06892,0.6363 -1.73242,0.71289 l -0.11719,0.0137 v 2.44531 c 0,0.0353 -0.0218,0.0863 -0.0606,0.125 -0.0387,0.0387 -0.0897,0.0605 -0.125,0.0605 -0.0853,0 -0.18554,-0.0759 -0.18554,-0.18555 v -2.44922 l -0.1211,-0.01 c -0.66023,-0.0508 -1.24137,-0.304 -1.72461,-0.71094 l -0.0937,-0.0781 -1.27539,1.27735 c -0.0586,0.0586 -0.0946,0.0664 -0.14453,0.0664 -0.0206,0 -0.12282,-0.0447 -0.14453,-0.0664 -0.0824,-0.0824 -0.0824,-0.20665 0,-0.28906 l 1.27344,-1.27344 -0.0723,-0.0937 c -0.38242,-0.4844 -0.63826,-1.068936 -0.71484,-1.732429 l -0.0117,-0.117188 h -2.44727 c -0.0853,0 -0.18554,-0.07398 -0.18554,-0.183594 0,-0.08526 0.0759,-0.185547 0.18554,-0.185546 h 2.45118 l 0.01,-0.123047 c 0.0508,-0.660244 0.30204,-1.241364 0.70899,-1.72461 l 0.0781,-0.0918 -1.27539,-1.277343 c -0.0824,-0.0824 -0.0824,-0.206663 0,-0.289063 0.0824,-0.0824 0.20666,-0.0824 0.28906,0 l 1.27344,1.273438 0.0918,-0.07227 c 0.48439,-0.382419 1.06894,-0.636339 1.73242,-0.712891 l 0.11719,-0.01367 v -2.445313 c 0,-0.03528 0.0218,-0.08626 0.0605,-0.125 0.0388,-0.03874 0.0897,-0.06055 0.125,-0.06055 z m 0,3.015625 c -1.5541,0 -2.83007,1.27792 -2.83007,2.832031 0,1.554116 1.27597,2.830076 2.83007,2.830076 1.57931,0 2.83203,-1.27754 2.83203,-2.830076 0,-1.554111 -1.27791,-2.832031 -2.83203,-2.832031 z m 0,0.263672 c 1.40923,0 2.56641,1.159139 2.56641,2.568359 0,1.410795 -1.12945,2.566406 -2.56641,2.566406 -1.40921,0 -2.5664,-1.157186 -2.5664,-2.566406 0,-1.40922 1.15719,-2.568359 2.5664,-2.568359 z"
         id="path2821" />
    </g>
    <path
       id="path511"
       d="m 130.8458,98.203025 h -2.32834 c -0.0794,-0.68791 -0.34396,-1.29645 -0.74083,-1.79916 l 1.19062,-1.19063 c 0.1323,-0.13229 0.1323,-0.34396 0,-0.47625 -0.13229,-0.13229 -0.34395,-0.13229 -0.47625,0 l -1.19062,1.19063 c -0.50271,-0.42334 -1.11125,-0.68792 -1.79917,-0.74084 v -2.32833 c 0,-0.18521 -0.15875,-0.3175 -0.3175,-0.3175 -0.15875,0 -0.3175,0.15875 -0.3175,0.3175 v 2.32833 c -0.68791,0.0794 -1.29646,0.34396 -1.79916,0.74084 l -1.19063,-1.19063 c -0.13229,-0.13229 -0.34396,-0.13229 -0.47625,0 -0.13229,0.13229 -0.13229,0.34396 0,0.47625 l 1.19063,1.19063 c -0.42334,0.50271 -0.68792,1.11125 -0.74084,1.79916 h -2.32833 c -0.18521,0 -0.3175,0.15875 -0.3175,0.3175 0,0.18521 0.15875,0.3175 0.3175,0.3175 h 2.32833 c 0.0794,0.68792 0.34396,1.296455 0.74084,1.799165 l -1.19063,1.19062 c -0.13229,0.1323 -0.13229,0.34396 0,0.47626 0.0529,0.0529 0.15875,0.10583 0.23813,0.10583 0.0794,0 0.15875,-0.0265 0.23812,-0.10583 l 1.19063,-1.19063 c 0.5027,0.42333 1.11125,0.68792 1.79916,0.74083 v 2.32834 c 0,0.18521 0.15875,0.3175 0.3175,0.3175 0.15875,0 0.3175,-0.15875 0.3175,-0.3175 v -2.32834 c 0.68792,-0.0794 1.29646,-0.34395 1.79917,-0.74083 l 1.19062,1.19063 c 0.0529,0.0529 0.15875,0.10583 0.23813,0.10583 0.0794,0 0.15875,-0.0265 0.23812,-0.10583 0.1323,-0.1323 0.1323,-0.34396 0,-0.47626 l -1.19062,-1.19062 c 0.42333,-0.50271 0.68792,-1.111245 0.74083,-1.799165 h 2.32834 c 0.1852,0 0.3175,-0.15875 0.3175,-0.3175 0.0264,-0.1852 -0.1323,-0.3175 -0.3175,-0.3175 z m -5.66209,3.016245 c -1.48166,0 -2.69875,-1.21708 -2.69875,-2.698745 0,-1.48166 1.21709,-2.69875 2.69875,-2.69875 1.48167,0 2.69875,1.21709 2.69875,2.69875 0,1.481665 -1.19062,2.698745 -2.69875,2.698745 z"
       fill="#444444"
       style="stroke-width:0.264583" />
  </g>
</svg>
